PathFileType	4	(X/Y/Z)	c:/Users/goper/Files/vsCode/490R/osim_files/A04/A04_SSWS_01.trc
DataRate	CameraRate	NumFrames	NumMarkers	Units                	OrigDataRate	OrigDataStartFrame	OrigNumFrames
120.00	120.00	4	36	mm	120.0	916	1220
                Frame#	Time	LPSIS			LASIS			LTH1			LTH2			LTH3			LTH4			LLFE			LMFE			LSH1			LSH2			LSH3			LSH4			LLMAL			LMMAL			LCAL			LMTP5			LTOE			LMTP1			RPSIS			RASIS			RTH1			RTH2			RTH3			RTH4			RLFE			RMFE			RSH1			RSH2			RSH3			RSH4			RLMAL			RMMAL			RCAL			RMTP1			RTOE			RMTP5		
		X1	Y1	Z1	X2	Y2	Z2	X3	Y3	Z3	X4	Y4	Z4	X5	Y5	Z5	X6	Y6	Z6	X7	Y7	Z7	X8	Y8	Z8	X9	Y9	Z9	X10	Y10	Z10	X11	Y11	Z11	X12	Y12	Z12	X13	Y13	Z13	X14	Y14	Z14	X15	Y15	Z15	X16	Y16	Z16	X17	Y17	Z17	X18	Y18	Z18	X19	Y19	Z19	X20	Y20	Z20	X21	Y21	Z21	X22	Y22	Z22	X23	Y23	Z23	X24	Y24	Z24	X25	Y25	Z25	X26	Y26	Z26	X27	Y27	Z27	X28	Y28	Z28	X29	Y29	Z29	X30	Y30	Z30	X31	Y31	Z31	X32	Y32	Z32	X33	Y33	Z33	X34	Y34	Z34	X35	Y35	Z35	X36	Y36	Z36

916	7.62500	-2922.63379	1028.16968	366.52185	-3151.67480	988.06384	439.04550	-3137.35913	646.43384	463.00281	-3153.80664	606.02686	461.95245	-3194.25513	667.73206	462.59650	-3205.85938	625.35394	463.78424	-3203.41309	521.32233	450.94962	-3216.46069	531.14020	311.48853	-3201.43091	414.15375	447.66205	-3219.92725	375.55521	443.05045	-3258.65894	434.44446	438.28098	-3266.90454	392.18954	432.63474	-3289.25342	109.55492	388.34097	-3314.93945	117.83084	306.18213	-3232.22583	66.17581	326.77716	-3430.69482	70.42704	431.10992	-3481.07983	91.47696	372.80133	-3468.10181	75.60419	327.31561	-2916.91479	1014.52661	260.91742	0.00000	0.00000	0.00000	-2940.50269	712.40979	133.26479	-2933.03394	670.41461	134.44003	-2998.48096	696.80072	119.88336	-2985.06763	652.40649	126.45834	-2944.46924	515.88092	152.16142	-2959.68555	514.09222	272.62140	-2830.63672	331.94028	163.74025	-2799.13574	295.29813	169.45096	-2778.22314	366.36841	169.18555	-2758.41016	324.22049	178.43065	-2673.41553	149.53812	180.83087	-2704.24219	146.68410	312.03143	-2587.93408	133.65723	259.31104	-2791.07861	54.58041	295.31436	-2816.82690	69.67030	246.79523	-2778.40259	52.54009	172.16316
917	7.63333	-2932.24976	1028.87000	366.86057	-3160.91821	988.95764	439.72327	-3145.08643	647.16663	465.47818	-3161.30469	606.53461	464.91080	-3202.25415	668.03436	466.26303	-3213.54224	625.44922	467.56546	-3211.61328	522.25879	453.73325	-3231.03223	534.33539	315.54736	-3207.70703	414.75922	450.13153	-3225.54492	375.79630	445.79550	-3265.11450	434.01630	441.05936	-3273.13208	391.94513	435.15933	-3289.41748	109.30692	388.39587	-3315.15698	117.38556	305.95984	-3232.27490	66.11140	326.77322	-3430.75586	70.28825	431.01212	-3481.25195	91.61385	372.78461	-3468.10449	75.54200	327.30356	-2926.95166	1014.38831	261.36267	0.00000	0.00000	0.00000	-2955.83325	709.30621	133.28308	-2945.85327	667.63123	133.23048	-3015.67236	694.50610	120.41641	-2998.29053	650.15436	125.60576	-2960.45337	512.75708	150.98813	-2975.78687	511.57379	270.99033	-2842.01196	331.56018	163.15762	-2810.42334	295.86151	169.07307	-2791.17139	367.81940	168.52953	-2768.96924	326.79428	177.88939	-2678.69824	154.95660	181.00037	-2709.74438	151.21416	312.25705	-2593.21021	141.75725	259.92242	-2793.17993	55.31697	295.22491	-2819.67529	69.17927	246.37080	-2779.53345	52.99310	172.00510
918	7.64167	-2941.60303	1029.78918	367.14072	-3169.99927	990.16351	440.64703	-3152.05957	646.83331	467.46811	-3168.27710	607.08484	467.13885	-3209.84668	668.13922	469.81299	-3220.67676	625.29742	470.82394	-3219.09644	522.59637	456.18567	-3239.10864	535.31091	318.40411	-3214.09204	415.40781	452.51587	-3231.21948	376.30743	447.51361	-3273.11304	434.34695	443.75549	-3279.40039	391.85327	437.22690	-3289.30347	109.02599	388.63223	-3314.92163	117.55022	305.96597	-3232.27246	65.87025	326.86441	-3430.63281	70.07455	431.27661	-3481.17407	91.71181	373.25842	-3467.97705	75.66866	327.67993	-2936.71436	1014.55621	261.69708	0.00000	0.00000	0.00000	-2970.51953	706.38171	132.99765	-2966.48120	663.72070	134.49429	-3028.78931	692.30945	119.86174	-3014.88281	647.29095	128.49635	-2978.03833	508.83966	150.79857	-2992.82324	507.86649	270.19345	-2854.25317	331.47955	162.35333	-2820.61426	297.16354	168.41315	-2804.59961	369.56671	167.58990	-2781.09546	329.46155	177.20189	-2684.73145	161.03355	181.12587	-2716.12671	156.32497	312.44492	-2599.04932	150.90498	260.58081	-2795.81885	56.41932	295.14661	-2822.24951	68.72945	245.97421	-2781.55054	53.43070	171.93628
919	7.65000	-2950.70532	1030.93335	367.31949	-3178.77710	991.61078	441.77530	-3160.10938	648.58978	469.76962	-3175.34546	607.61975	469.11127	-3217.49756	668.25531	472.74313	-3228.18262	625.50330	472.55679	-3227.29272	523.24152	458.95758	-3246.86890	536.00330	320.89349	-3219.28125	415.83392	453.43021	-3235.65894	376.61496	448.88818	-3277.69727	433.38846	445.38852	-3284.91089	391.55328	439.05075	-3287.66577	108.03337	388.32800	-3314.98901	117.52470	306.34811	-3232.32886	65.76436	326.97656	-3430.63330	69.66965	431.52307	-3481.17310	91.50439	373.67209	-3468.06958	75.70092	328.01215	-2946.34839	1014.81165	261.97385	0.00000	0.00000	0.00000	0.00000	0.00000	0.00000	-2982.55347	659.99371	133.58411	-3045.16431	689.89264	120.09910	0.00000	0.00000	0.00000	-2997.80029	505.95917	148.87946	-3011.73926	504.85092	268.27542	-2867.36841	331.66498	161.59355	-2833.86035	298.41278	167.95235	-2819.54297	371.51599	166.84286	-2794.33765	332.29932	176.44749	-2691.68188	167.90321	181.11948	-2723.27173	162.20540	312.46371	-2605.87085	161.28496	261.24695	-2799.35596	57.74068	294.77994	-2825.36304	68.64334	245.55414	-2783.30322	54.43941	171.71916
